<svg width="32" height="32" viewBox="0 0 32 32" fill="none" xmlns="http://www.w3.org/2000/svg">
<path d="M15.2151 15.406L4.25293 27.0417C4.25334 27.0441 4.25417 27.0461 4.25455 27.0485C4.59075 28.3121 5.7448 29.2424 7.11442 29.2424C7.66193 29.2424 8.17596 29.0944 8.6168 28.8345L8.65181 28.814L20.9918 21.6932L15.2157 15.4058" fill="#EB3131"/>
<path d="M26.307 13.4251L26.2965 13.418L20.969 10.3295L14.9668 15.6705L20.9898 21.6928L26.2893 18.635C27.2184 18.1334 27.8491 17.154 27.8491 16.0244C27.8491 14.903 27.2268 13.9285 26.307 13.4252" fill="#F6B60B"/>
<path d="M4.25191 4.95746C4.186 5.20048 4.15137 5.45502 4.15137 5.71936V26.2807C4.15137 26.5446 4.1856 26.8 4.25232 27.0421L15.5929 15.7038L4.25232 4.95775" fill="#5778C5"/>
<path d="M15.297 16L20.9714 10.3273L8.64532 3.18073C8.19729 2.91238 7.67437 2.75751 7.11483 2.75751C5.74522 2.75751 4.58961 3.68954 4.25334 4.95451C4.25293 4.95575 4.25293 4.9566 4.25293 4.95768L15.297 16.0003" fill="#3BAD49"/>
</svg>
