<svg width="40" height="40" viewBox="0 0 40 40" fill="none" xmlns="http://www.w3.org/2000/svg">
<rect width="40" height="40" fill="#FF2F71"/>
<path d="M12.4432 14.8182V25H9.98722V17.1151H9.92756L7.65057 18.5071V16.3793L10.1612 14.8182H12.4432ZM18.6713 25.1392C17.8792 25.1392 17.1716 25.0133 16.5485 24.7614C15.9287 24.5062 15.4415 24.1615 15.0868 23.7273C14.7355 23.2898 14.5598 22.7959 14.5598 22.2457C14.5598 21.8248 14.6609 21.4387 14.8631 21.0874C15.0653 20.736 15.3387 20.4444 15.6834 20.2124C16.0314 19.977 16.4192 19.8262 16.8468 19.7599V19.6804C16.2866 19.5777 15.8276 19.3175 15.4696 18.8999C15.115 18.4822 14.9377 17.9934 14.9377 17.4332C14.9377 16.9029 15.0984 16.4306 15.4199 16.0163C15.7447 15.602 16.1872 15.2756 16.7473 15.0369C17.3108 14.7983 17.9521 14.679 18.6713 14.679C19.3906 14.679 20.0302 14.7983 20.5904 15.0369C21.1538 15.2756 21.5963 15.602 21.9178 16.0163C22.2426 16.4306 22.405 16.9029 22.405 17.4332C22.405 17.9967 22.2244 18.4872 21.8631 18.9048C21.5051 19.3191 21.0494 19.5777 20.4959 19.6804V19.7599C20.9202 19.8262 21.3046 19.977 21.6493 20.2124C21.9973 20.4444 22.2724 20.736 22.4746 21.0874C22.6801 21.4387 22.7828 21.8248 22.7828 22.2457C22.7828 22.7959 22.6055 23.2898 22.2509 23.7273C21.8962 24.1615 21.409 24.5062 20.7892 24.7614C20.1728 25.0133 19.4668 25.1392 18.6713 25.1392ZM18.6713 23.3942C18.973 23.3942 19.2381 23.3378 19.4668 23.2251C19.6955 23.1091 19.8745 22.9484 20.0037 22.7429C20.1363 22.5374 20.2026 22.3054 20.2026 22.0469C20.2026 21.7817 20.1363 21.5464 20.0037 21.3409C19.8712 21.1354 19.6889 20.9747 19.4569 20.8587C19.2282 20.7393 18.9663 20.6797 18.6713 20.6797C18.3797 20.6797 18.1178 20.7393 17.8858 20.8587C17.6538 20.9747 17.4715 21.1354 17.339 21.3409C17.2064 21.5464 17.1401 21.7817 17.1401 22.0469C17.1401 22.3054 17.2047 22.5374 17.334 22.7429C17.4666 22.9451 17.6472 23.1042 17.8759 23.2202C18.1079 23.3362 18.373 23.3942 18.6713 23.3942ZM18.6713 18.9446C18.9299 18.9446 19.1586 18.8916 19.3574 18.7855C19.5596 18.6795 19.717 18.532 19.8297 18.343C19.9457 18.1541 20.0037 17.9403 20.0037 17.7017C20.0037 17.4631 19.9457 17.2526 19.8297 17.0703C19.717 16.888 19.5613 16.7455 19.3624 16.6428C19.1635 16.5367 18.9332 16.4837 18.6713 16.4837C18.4128 16.4837 18.1825 16.5367 17.9803 16.6428C17.7781 16.7455 17.6207 16.888 17.508 17.0703C17.3953 17.2526 17.339 17.4631 17.339 17.7017C17.339 17.9403 17.3953 18.1541 17.508 18.343C17.624 18.5286 17.7831 18.6761 17.9853 18.7855C18.1874 18.8916 18.4161 18.9446 18.6713 18.9446ZM27.2076 23.5284V16.3295H29.2111V23.5284H27.2076ZM24.6074 20.9332V18.9247H31.8063V20.9332H24.6074Z" fill="white"/>
</svg>
