<svg width="20" height="20" viewBox="0 0 20 20" fill="none" xmlns="http://www.w3.org/2000/svg">
<path fill-rule="evenodd" clip-rule="evenodd" d="M18.3334 9.99996C18.3334 11.15 17.4001 12.0833 16.2501 12.0833H12.0834V16.25C12.0834 17.4 11.1501 18.3333 10.0001 18.3333C8.85008 18.3333 7.91674 17.4 7.91674 16.25V12.0833H3.75009C2.60009 12.0833 1.66675 11.15 1.66675 9.99996C1.66675 8.84996 2.60009 7.91663 3.75009 7.91663H7.91674V3.74996C7.91674 2.59996 8.85008 1.66663 10.0001 1.66663C11.1501 1.66663 12.0834 2.59996 12.0834 3.74996V7.91663H16.2501C17.4001 7.91663 18.3334 8.84996 18.3334 9.99996Z" fill="white"/>
</svg>
