<svg width="86" height="60" viewBox="0 0 86 60" fill="none" xmlns="http://www.w3.org/2000/svg">
<path d="M14.2815 39.4691L14.3523 38.3805L4.23413e-06 42.3074L1.43688 42.9056L1.43697 42.9053L14.2815 39.4691Z" fill="#FCEE0A"/>
<path d="M83.0043 41.5044L85.1341 15.805L84.2635 15.0396L82.1337 40.739L12.4269 59.3874L13.8772 60L13.8773 59.9997L83.0043 41.5044Z" fill="#FCEE0A"/>
<path d="M14.5567 33.688L84.2635 15.0396L82.1337 40.739L12.4269 59.3874L14.5567 33.688Z" fill="black"/>
<path d="M64.0931 25.1608L66.1782 0L2.08499 17.1466L4.23413e-06 42.3074L64.0931 25.1608Z" fill="black"/>
<path d="M64.4679 20.3467L84.2635 15.0396L77.5894 13.3266L71.2005 15.0415L68.1106 18.0403L69.0381 6.3302L66.1782 0L64.4679 20.3467Z" fill="#D9D9D9"/>
<path d="M64.4679 20.3467L84.2635 15.0396L77.5894 13.3266L71.2005 15.0415L68.1106 18.0403L69.0381 6.3302L66.1782 0L64.4679 20.3467Z" fill="url(#paint0_linear_1308_16549)"/>
<path d="M50.2346 18.281L46.6198 11.56L45.1334 10.6046L50.1 9.27587L52.3548 13.101L55.2102 7.90877L60.1768 6.58008L54.3399 17.1827L53.7979 23.2014L49.6925 24.2996L50.2346 18.281Z" fill="white"/>
<path d="M31.3806 29.1986L30.5755 28.0301L33.6841 15.0514L32.8503 13.8906L43.3577 11.0796L44.4212 12.179L44.2013 14.575L37.1964 16.449L34.3376 28.4075L31.3806 29.1986ZM40.2516 26.8254L39.2168 25.7183L39.4799 22.4497L36.6378 23.2101L36.9789 19.4286L39.8211 18.6682L40.0333 16.2435L44.1386 15.1452L43.2086 26.0343L40.2516 26.8254Z" fill="white"/>
<path d="M22.7988 17.9634L21.7641 16.8563L25.8694 15.7581L26.9042 16.8651L26.025 26.9102L31.1926 25.5277L32.2274 26.6347L32.0075 29.0307L22.7346 31.5115L21.6998 30.4044L22.7988 17.9634Z" fill="white"/>
<path d="M8.24009 35.3893L7.20532 34.2822L8.30436 21.8412L7.26959 20.7341L19.9875 17.3318L21.051 18.4311L20.8311 20.8271L12.1898 23.1388L11.9436 26.1261L16.4509 24.9203L16.6631 22.4957L20.7685 21.3974L20.3651 26.2104L19.0668 27.9108L11.6025 29.9077L11.1971 34.5982L8.24009 35.3893Z" fill="white"/>
<path d="M64.7713 40.6191L63.6904 39.4626L64.5733 29.557L68.8618 28.4097L68.7271 29.8271L77.7541 27.4121L77.4057 31.3924L68.3788 33.8073L68.2086 35.8124L77.2356 33.3975L77.0139 35.9304L75.6576 37.7067L64.7713 40.6191ZM77.9242 25.407L64.6088 28.9693L64.8385 26.4663L63.7575 25.3099L77.043 21.7557L78.1539 22.9041L77.9242 25.407Z" fill="url(#paint1_linear_1308_16549)"/>
<path d="M56.6601 31.6741L62.748 30.0454L54.8072 39.3977L60.8052 37.7931L61.8862 38.9495L61.7164 41.4364L49.6005 44.6777L48.5196 43.5213L48.7193 41.0264L56.6601 31.6741ZM48.5867 29.3686L61.8722 25.8144L62.9832 26.9628L62.7535 29.4657L49.438 33.0279L49.6677 30.525L48.5867 29.3686Z" fill="url(#paint2_linear_1308_16549)"/>
<path d="M47.6121 33.5164L38.5852 35.9313L38.328 39.0519L43.0364 37.7923L43.2581 35.2594L47.5467 34.1121L46.5751 45.4871L43.4861 46.3135L42.4052 45.157L42.6801 41.7426L37.9717 43.0022L37.5481 47.902L34.4592 48.7284L33.3782 47.572L34.5263 34.5757L33.4454 33.4193L46.7309 29.865L47.8418 31.0134L47.6121 33.5164Z" fill="url(#paint3_linear_1308_16549)"/>
<path d="M31.6194 33.9077L32.7004 35.0641L32.2887 39.7681L30.9844 41.4983L30.9705 41.5663L32.0354 42.6628L31.5523 48.0604L30.2041 49.8667L19.3178 52.7791L18.2368 51.6227L19.1197 41.717L23.4083 40.5697L23.2837 42.145L27.9921 40.8854L28.1821 38.7143L19.1552 41.1293L19.3769 38.5964L18.3039 37.47L31.6194 33.9077ZM27.5568 45.9811L27.7168 43.8181L23.0084 45.0777L22.8184 47.2488L27.5568 45.9811Z" fill="url(#paint4_linear_1308_16549)"/>
<defs>
<linearGradient id="paint0_linear_1308_16549" x1="61.6576" y1="-16.5664" x2="43.0793" y2="10.6683" gradientUnits="userSpaceOnUse">
<stop stop-color="#FFFD3E"/>
<stop offset="1" stop-color="#F5AA07"/>
</linearGradient>
<linearGradient id="paint1_linear_1308_16549" x1="24.0956" y1="30.1343" x2="39.3473" y2="55.2128" gradientUnits="userSpaceOnUse">
<stop stop-color="#FFFD3E"/>
<stop offset="1" stop-color="#F5B607"/>
</linearGradient>
<linearGradient id="paint2_linear_1308_16549" x1="24.0956" y1="30.1343" x2="39.3473" y2="55.2128" gradientUnits="userSpaceOnUse">
<stop stop-color="#FFFD3E"/>
<stop offset="1" stop-color="#F5B607"/>
</linearGradient>
<linearGradient id="paint3_linear_1308_16549" x1="24.0956" y1="30.1343" x2="39.3473" y2="55.2128" gradientUnits="userSpaceOnUse">
<stop stop-color="#FFFD3E"/>
<stop offset="1" stop-color="#F5B607"/>
</linearGradient>
<linearGradient id="paint4_linear_1308_16549" x1="24.0956" y1="30.1343" x2="39.3473" y2="55.2128" gradientUnits="userSpaceOnUse">
<stop stop-color="#FFFD3E"/>
<stop offset="1" stop-color="#F5B607"/>
</linearGradient>
</defs>
</svg>
