<svg width="20" height="20" viewBox="0 0 20 20" fill="none" xmlns="http://www.w3.org/2000/svg">
<path fill-rule="evenodd" clip-rule="evenodd" d="M18.3333 9.99996C18.3333 11.15 17.4 12.0833 16.25 12.0833H12.0833V16.25C12.0833 17.4 11.15 18.3333 9.99996 18.3333C8.84996 18.3333 7.91662 17.4 7.91662 16.25V12.0833H3.74997C2.59997 12.0833 1.66663 11.15 1.66663 9.99996C1.66663 8.84996 2.59997 7.91663 3.74997 7.91663H7.91662V3.74996C7.91662 2.59996 8.84996 1.66663 9.99996 1.66663C11.15 1.66663 12.0833 2.59996 12.0833 3.74996V7.91663H16.25C17.4 7.91663 18.3333 8.84996 18.3333 9.99996Z" fill="#00505C"/>
</svg>
